<?xml version="1.0" encoding="utf-8"?>
<!-- Generator: Adobe Illustrator 25.0.1, SVG Export Plug-In . SVG Version: 6.00 Build 0)  -->
<svg version="1.0" id="Layer_1" xmlns="http://www.w3.org/2000/svg" xmlns:xlink="http://www.w3.org/1999/xlink" x="0px" y="0px"
	 viewBox="0 0 141 51" style="enable-background:new 0 0 141 51;" xml:space="preserve">
<style type="text/css">
	.st0{fill:#BAB3AA;}
	.st1{fill:#FBFAF9;}
	.st2{font-family:'Aileron-Thin';}
	.st3{font-size:12.1519px;}
	.st4{letter-spacing:3.7;}
</style>
<rect x="-0.1" y="0.2" width="228.6" height="50.7"/>
<g>
	<g>
		<path class="st0" d="M26.2,45.1c0.4-3.5,0.6-5.9,0.6-10.9V16.8c0-5.1-0.1-7.4-0.6-10.9h14.9c13.5,0,22.2,6.2,22.2,19.6
			c0,12.9-8.4,19.6-22.2,19.6H26.2z M37,44h3.8c7,0,11.6-6.2,11.6-18.5C52.4,12.7,47.8,7,40.7,7H37V44z"/>
	</g>
	<g>
		<path class="st1" d="M5.5,45.1c0.4-3.5,0.6-5.9,0.6-10.9V16.8c0-5.1-0.2-7.4-0.6-10.9h29.6l-3.2,4.6c-4-3-7.6-3.5-10.6-3.5h-5.1
			v18.3H19c2.6,0,5.3,0,9.8-0.5V27c-4.6-0.5-7.2-0.5-9.8-0.5h-2.7v7.7c0,5.1,0.2,7.4,0.6,10.9H5.5z"/>
	</g>
</g>
<text transform="matrix(1.0789 0 0 1 70.8711 15.6982)" class="st0 st2 st3 st4">FINAL</text>
<text transform="matrix(1.0789 0 0 1 70.8711 30.2983)" class="st0 st2 st3 st4">DESIGNS </text>
<text transform="matrix(1.0789 0 0 1 70.8711 44.8984)" class="st0 st2 st3 st4">INSTALLS</text>
</svg>
